# xmcd
#
# Track frame offsets:
#	150
#	15052
#	31170
#
# Disc length: 628 seconds
#
# Revision: 2
# Processed by: cddbd v1.5.1PL0 Copyright (c) Steve Scherf et al.
# Submitted via: EasyCDDAExtractor 7.1.3.1
#
DISCID=0e027203
DTITLE=Missy Elliott Feat. Ciara and Fat Man Scoop - Lose Control
DYEAR=2005
DGENRE=Rap
TTITLE0=Lose Control (Radio Version)
TTITLE1=Lose Control (Instrumental)
TTITLE2=The System
EXTD=YEAR: 2003 ID3G: 17
EXTT0=
EXTT1=
EXTT2=
PLAYORDER=
